Coordinates
version=1
nRows=6
nColumns=44
inDegrees=no
Units are S.I. units (second, meters, Newtons, ...)
If the header above contains a line with 'inDegrees', this indicates whether rotational values are in degrees (yes) or radians (no).
endheader
time	pelvis_tilt	pelvis_list	pelvis_rotation	pelvis_tx	pelvis_ty	pelvis_tz	hip_flexion_r	hip_adduction_r	hip_rotation_r	knee_angle_r	knee_frontal_r	knee_adduction_r	knee_angle_r_beta	ankle_angle_r	subtalar_angle_r	mtp_angle_r	hip_flexion_l	hip_adduction_l	hip_rotation_l	knee_angle_l	knee_frontal_l	knee_adduction_l	knee_angle_l_beta	ankle_angle_l	subtalar_angle_l	mtp_angle_l	lumbar_extension	lumbar_bending	lumbar_rotation	arm_flex_r	arm_add_r	arm_rot_r	elbow_flex_r	pro_sup_r	wrist_flex_r	wrist_dev_r	arm_flex_l	arm_add_l	arm_rot_l	elbow_flex_l	pro_sup_l	wrist_flex_l	wrist_dev_l
    3.00000000000000	   -0.11958881135946	    0.03240996037632	   -0.08253193402522	    0.82710818583904	    0.96396678775077	    0.46850188665952	    0.44420511907094	   -0.05097750281882	    0.09903529118388	    1.21783962870240	    0.00000000000000	    0.00000000000000	    1.21783962870240	   -0.08199430330596	   -0.06675677652211	   -0.22794052986794	    0.30269013825743	    0.03772932596707	    0.02704496157022	    0.35266295534176	    0.00000000000000	    0.00000000000000	    0.35266295534176	    0.12944299125834	   -0.11269155602675	   -0.17130548699411	   -0.06444139408485	    0.01214011700320	    0.00003708355973	   -0.00015147274855	   -0.28074088612713	    0.01258166713728	    0.62702017389566	    1.57079632696943	    0.00000000000000	    0.00000000000000	   -0.14963324289072	   -0.32131150765107	    0.11474987324990	    0.71083344344545	    1.57079632696943	    0.00000000000000	    0.00000000000000
    3.00500000000000	   -0.12063884412744	    0.03096758489221	   -0.08227736527750	    0.82661817890061	    0.96456979837339	    0.46839199685211	    0.45627606882672	   -0.04753705781055	    0.09900898433803	    1.21232263362227	    0.00000000000000	    0.00000000000000	    1.21232263362227	   -0.06603284064922	   -0.06304075620772	   -0.23139751701598	    0.29540440358417	    0.03661419574195	    0.02762048621509	    0.34907026197870	    0.00000000000000	    0.00000000000000	    0.34907026197870	    0.13207856297611	   -0.11036739548171	   -0.17124743732444	   -0.06352244963114	    0.01497914856062	    0.00003417054218	   -0.00512474396372	   -0.28011074812111	    0.01186337750877	    0.62079638231381	    1.57079632696943	    0.00000000000000	    0.00000000000000	   -0.14373291318625	   -0.32415103866495	    0.11349391097325	    0.71842141192838	    1.57079632696943	    0.00000000000000	    0.00000000000000
    3.01000000000000	   -0.12166263095000	    0.02960759022054	   -0.08182931413008	    0.82612628908025	    0.96515317177701	    0.46828496976051	    0.46789596509442	   -0.04434182619427	    0.09856785601081	    1.20538118750388	    0.00000000000000	    0.00000000000000	    1.20538118750388	   -0.05064443114446	   -0.05994733983910	   -0.23502165036055	    0.28807577442569	    0.03561433213350	    0.02831516251023	    0.34537379688021	    0.00000000000000	    0.00000000000000	    0.34537379688021	    0.13453541450381	   -0.10802209991720	   -0.17135940164880	   -0.06261674318625	    0.01768319947470	    0.00003111834352	   -0.01028129037880	   -0.27946584201815	    0.01080774418039	    0.61490518049005	    1.57079632696943	    0.00000000000000	    0.00000000000000	   -0.13781421513594	   -0.32711823449282	    0.11245329923092	    0.72628443521134	    1.57079632696943	    0.00000000000000	    0.00000000000000
    3.01500000000000	   -0.12264957915716	    0.02834211348308	   -0.08120703212958	    0.82563275066237	    0.96571554643858	    0.46818089167440	    0.47905612280126	   -0.04141292103179	    0.09774755075614	    1.19705545129215	    0.00000000000000	    0.00000000000000	    1.19705545129215	   -0.03594925466402	   -0.05750976979647	   -0.23864845176514	    0.28069489396523	    0.03473946566511	    0.02912453176062	    0.34157929767087	    0.00000000000000	    0.00000000000000	    0.34157929767087	    0.13683151348657	   -0.10567152865274	   -0.17163825348102	   -0.06173723504360	    0.02023348452162	    0.00002799848647	   -0.01558815602243	   -0.27879793719129	    0.00942754560038	    0.60931854151636	    1.57079632696943	    0.00000000000000	    0.00000000000000	   -0.13188975048613	   -0.33020924161835	    0.11161626887077	    0.73442925031350	    1.57079632696943	    0.00000000000000	    0.00000000000000
    3.02000000000000	   -0.12358997242361	    0.02718083709445	   -0.08043128846142	    0.82513770434261	    0.96625564715578	    0.46808003745976	    0.48974639860820	   -0.03876599526159	    0.09658592975057	    1.18737895870973	    0.00000000000000	    0.00000000000000	    1.18737895870973	   -0.02205019777490	   -0.05574367163967	   -0.24214002262846	    0.27325253001998	    0.03399621176494	    0.03004219662973	    0.33769164857356	    0.00000000000000	    0.00000000000000	    0.33769164857356	    0.13898330748531	   -0.10333100457891	   -0.17208225401604	   -0.06089629886251	    0.02261447832928	    0.00002488530153	   -0.02101145759625	   -0.27809991806074	    0.00773913772626	    0.60400827123056	    1.57079632696943	    0.00000000000000	    0.00000000000000	   -0.12597232340117	   -0.33341821676408	    0.11096687642644	    0.74285973474062	    1.57079632696943	    0.00000000000000	    0.00000000000000
    3.02500000000000	   -0.12447519123308	    0.02613115791107	   -0.07952382496997	    0.82464122643280	    0.96677225641732	    0.46798285755261	    0.49995539590222	   -0.03641148696337	    0.09512258247986	    1.17637859635295	    0.00000000000000	    0.00000000000000	    1.17637859635295	   -0.00903269724196	   -0.05464800255997	   -0.24538561279305	    0.26573998876738	    0.03338835143636	    0.03106008935351	    0.33371514932760	    0.00000000000000	    0.00000000000000	    0.33371514932760	    0.14100553939621	   -0.10101522535964	   -0.17269094925988	   -0.06010537297394	    0.02481377398766	    0.00002185369311	   -0.02651714748315	   -0.27736588973042	    0.00576213084906	    0.59894679598734	    1.57079632696943	    0.00000000000000	    0.00000000000000	   -0.12007471956483	   -0.33673757033904	    0.11048575506780	    0.75157663970216	    1.57079632696943	    0.00000000000000	    0.00000000000000
